# File generated by ImageToStl.com - Free Image and 3D model conversion tools

# mtllib sketchfab_2016_12_14_13_37_50.mtl

o obj1
v 1 -1 0
v -1 1 0
v -1 -1 0
v 1 1 0
vn 0 0 1
vn 0 0 1
vn 0 0 1
vn 0 0 1
usemtl mat0
f 1//1 2//2 3//3
f 1//1 4//4 2//2
# Vertices: 4, normals: 4, texture coordinates: 0, faces: 2

o obj2
v 9E-08 -0.04490779 -1.29597569
v -0.84792435 -0.04490779 -0.94475383
v -0.59957296 0.55466533 -0.94475383
v -0.84792435 -0.04490779 0.75109482
v -0.84792435 0.80301666 -0.09682965
v -1.19914615 -0.04490779 -0.09682965
v 2E-08 -0.04490787 1.10231662
v -0.59957296 0.55466533 0.75109482
v 9E-08 0.80301666 -0.94475383
v 9E-08 0.80301666 0.75109482
v 5E-08 1.15423846 -0.09682965
v 0.59957314 0.55466527 -0.94475383
v 0.84792447 0.80301666 -0.09682965
v 0.59957314 0.55466527 0.75109482
v 0.84792441 -0.04490776 -0.94475383
v 1.19914603 -0.04490779 -0.09682965
v 0.84792441 -0.04490776 0.75109482
v 0.59957308 -0.64448071 0.75109482
v 0.59957308 -0.64448071 -0.94475383
v 0.84792435 -0.89283204 -0.09682965
v 5E-08 -1.24405384 -0.09682965
v 9E-08 -0.89283198 -0.94475383
v 9E-08 -0.89283198 0.75109482
v -0.59957278 -0.64448071 -0.94475383
v -0.59957278 -0.64448071 0.75109482
v -0.84792417 -0.89283198 -0.09682965
vn 0 -0 -1
vn -0.74862 -1E-05 -0.663
vn -0.52936 0.52936 -0.66299
vn -0.74863 -0 0.66299
vn -0.70711 0.70711 0
vn -1 0 -0
vn -0 -0 1
vn -0.52935 0.52935 0.663
vn 1E-05 0.74862 -0.663
vn 0 0.74863 0.66299
vn -0 1 -0
vn 0.52936 0.52935 -0.663
vn 0.7071 0.70711 -0
vn 0.52936 0.52935 0.663
vn 0.74862 -0 -0.663
vn 1 0 -0
vn 0.74862 -1E-05 0.663
vn 0.52935 -0.52936 0.663
vn 0.52936 -0.52936 -0.66299
vn 0.70711 -0.70711 0
vn 0 -1 -0
vn -0 -0.74862 -0.663
vn -1E-05 -0.74862 0.663
vn -0.52935 -0.52936 -0.663
vn -0.52935 -0.52935 0.663
vn -0.70711 -0.70711 0
usemtl mat0
f 5//5 6//6 7//7
f 8//8 9//9 10//10
f 10//10 7//7 6//6
f 8//8 11//11 12//12
f 5//5 7//7 13//13
f 9//9 14//14 15//15
f 7//7 15//15 13//13
f 12//12 11//11 14//14
f 5//5 13//13 16//16
f 14//14 17//17 15//15
f 13//13 17//17 16//16
f 14//14 11//11 18//18
f 5//5 16//16 19//19
f 18//18 20//20 17//17
f 16//16 20//20 19//19
f 18//18 11//11 21//21
f 21//21 11//11 22//22
f 5//5 19//19 23//23
f 21//21 24//24 20//20
f 20//20 23//23 19//19
f 23//23 25//25 26//26
f 22//22 11//11 27//27
f 5//5 23//23 26//26
f 22//22 25//25 24//24
f 25//25 28//28 26//26
f 27//27 11//11 29//29
f 5//5 26//26 28//28
f 27//27 30//30 25//25
f 30//30 6//6 28//28
f 29//29 11//11 8//8
f 5//5 28//28 6//6
f 30//30 8//8 10//10
f 8//8 12//12 9//9
f 10//10 9//9 7//7
f 9//9 12//12 14//14
f 7//7 9//9 15//15
f 14//14 18//18 17//17
f 13//13 15//15 17//17
f 18//18 21//21 20//20
f 16//16 17//17 20//20
f 21//21 22//22 24//24
f 20//20 24//24 23//23
f 23//23 24//24 25//25
f 22//22 27//27 25//25
f 25//25 30//30 28//28
f 27//27 29//29 30//30
f 30//30 10//10 6//6
f 30//30 29//29 8//8
# Vertices: 26, normals: 26, texture coordinates: 0, faces: 48

o obj3
v -0.94655097 6.6E-07 5.74612951
v -0.47059637 0.47150546 5.80834007
v -0.66931164 0.67060447 5.74612951
v 5E-08 0.66680843 5.80834007
v 4E-08 0.94837672 5.74612951
v -0.6546244 0.6558888 5.53892088
v -0.47059739 -0.47150496 5.80834007
v -0.66552466 4.8E-07 5.80834007
v -0.71689272 5.1E-07 6.3815136
v -0.50691903 0.50789827 6.3815136
v 0.66931272 0.67060357 5.74612951
v 0.47059709 0.47150481 5.80834007
v 4E-08 0.92756569 5.53892088
v 5E-08 0.71827561 6.3815136
v -1.32040036 9.1E-07 5.3891139
v -0.93366277 0.93546593 5.3891139
v -0.65462577 -0.65588814 5.53892088
v -0.92578 6.4E-07 5.53892088
v -0.66931307 -0.67060381 5.74612951
v -1.6E-07 -0.66680902 5.80834007
v -0.87190026 0.86370224 7.04362726
v 0.94655102 -1.8E-07 5.74612951
v 0.66552478 -1.2E-07 5.80834007
v 0.65462542 0.6558879 5.53892088
v 0.5069198 0.50789756 6.3815136
v 3E-08 1.32294714 5.3891139
v 6E-08 1.22555089 7.04362726
v -0.46991435 0.47082198 4.94318247
v -2.6E-07 -0.92756629 5.53892088
v 0.66931272 -0.67060405 5.74612951
v -2.7E-07 -0.94837737 5.74612951
v -0.50692016 -0.50789773 6.3815136
v -1.23305488 -0.00988142 7.04362726
v -1.35800707 0.60839969 7.54300833
v -0.62008512 -0.00988207 7.23898602
v -0.43807009 0.43038738 7.23898602
v 0.47059709 -0.47150508 5.80834007
v 0.92578012 -1.8E-07 5.53892088
v 0.71689284 -1.3E-07 6.3815136
v 0.93366414 0.93546468 5.3891139
v 0.87190151 0.86370105 7.04362726
v 5E-08 0.66584206 4.94318247
v -0.67957973 4.8E-07 3.18135643
v -0.48053479 0.48146296 3.18135643
v -0.46991527 -0.47082141 4.94318247
v -0.66456014 4.7E-07 4.94318247
v -0.93366468 -0.93546504 5.3891139
v 0.5069198 -0.50789785 6.3815136
v -1.8E-07 -0.7182762 6.3815136
v -0.87190211 -0.88346589 7.04362726
v -1.32081032 -0.61909491 7.54300833
v 0.65462542 -0.65588844 5.53892088
v 1.32040036 -2.7E-07 5.3891139
v 1.23305488 -0.00988251 7.04362726
v 0.46991503 0.47082135 4.94318247
v -0.43807113 -0.45015177 7.23898602
v 5E-08 0.6808905 3.18135643
v -0.82882452 5.8E-07 2.50991631
v -0.58606672 0.58719862 2.50991631
v -1.7E-07 -0.66584235 4.94318247
v 0.93366414 -0.93546546 5.3891139
v -4E-07 -1.3229481 5.3891139
v 0.87190151 -0.88346606 7.04362726
v -3.4E-07 -1.24531662 7.04362726
v -0.62337035 -1.34443259 7.54300833
v -2.8E-07 -0.63195693 7.23898602
v 0.66456032 -1.3E-07 4.94318247
v 0.48053551 0.4814623 3.18135643
v 5E-08 0.83042336 2.50991631
v 1.38439059 -0.50896639 7.54300833
v -1.0295192 7.1E-07 2.09487343
v -0.72797894 0.72938496 2.09487343
v -0.48053575 -0.48146236 3.18135643
v 0.55539173 -1.30587494 7.54300833
v 0.43807089 -0.45015177 7.23898602
v -0.1787004 0.16955847 7.60936308
v -0.252482 -0.0100703 7.60967207
v 0.46991503 -0.47082165 4.94318247
v 0.67957991 -1.3E-07 3.18135643
v 0.58606756 0.5871979 2.50991631
v 4E-08 1.03150499 2.09487343
v 2.135E-05 0.2438271 7.60994148
v -1.28166795 8.7E-07 1.98214054
v -0.90627497 0.90802521 1.98214054
v -0.58606791 -0.5871979 2.50991631
v -1.7E-07 -0.68089092 3.18135643
v 0.48053551 -0.4814626 3.18135643
v -0.1788121 -0.18799737 7.60974455
v 0.82882482 -1.6E-07 2.50991631
v 0.72798014 0.72938401 2.09487343
v 0.43807095 0.4303866 7.23898602
v 0.17874372 0.16955848 7.60936308
v 1E-08 1.28414011 1.98214054
v -0.89445573 0.89618319 1.89308834
v -1.26495326 8.6E-07 1.89308834
v -0.72798038 -0.72938418 2.09487343
v -0.90627652 -0.90802425 1.98214054
v -2.2E-07 -0.83042371 2.50991631
v 0.58606756 -0.58719826 2.50991631
v 2.139E-05 -0.2625359 7.61086273
v 1.0295192 -2.1E-07 2.09487343
v 0.62008524 -0.00988252 7.23898602
v 0.25252527 -0.01007036 7.60967207
v 0.90627617 0.90802407 1.98214054
v 1E-08 1.26739287 1.89308834
v -1.89667356 1.26E-06 1.12047815
v -1.34114921 1.34373915 1.12047815
v -0.8944574 -0.89618224 1.89308834
v -3E-07 -1.03150547 2.09487343
v -4.1E-07 -1.28414071 1.98214054
v 0.72798014 -0.7293846 2.09487343
v 0.1766787 -0.18933252 7.61079121
v 1.28166807 -2.7E-07 1.98214054
v 0.89445704 0.89618194 1.89308834
v -6E-08 1.90033185 1.12047815
v -1.12687123 1.12904739 0.6439724
v -1.59363878 1.06E-06 0.6439724
v -1.34115183 -1.34373772 1.12047815
v -3.9E-07 -1.26739359 1.89308834
v 0.90627617 -0.90802461 1.98214054
v 1.26495314 -2.6E-07 1.89308834
v 1.34115064 1.34373724 1.12047815
v -2E-08 1.59671223 0.6439724
v -1.89087284 1.26E-06 0.43646431
v -1.33704746 1.33962941 0.43646431
v -1.12687349 -1.12904632 0.6439724
v -6.8E-07 -1.90033281 1.12047815
v 0.89445704 -0.89618266 1.89308834
v 1.89667332 -4.3E-07 1.12047815
v 1.12687266 1.12904596 0.6439724
v -6E-08 1.89451969 0.43646431
v -2.01044059 1.33E-06 0.02952194
v -1.4215945 1.42433977 0.02952194
v -1.33704996 -1.33962798 0.43646431
v -5.4E-07 -1.59671342 0.6439724
v 1.34115064 -1.34373856 1.12047815
v 1.59363854 -3.6E-07 0.6439724
v 1.33704889 1.33962762 0.43646431
v -7E-08 2.01431799 0.02952194
v 1.42159605 -1.42433906 0.02952194
v -7.3E-07 -2.01431942 0.02952194
v -1.42159724 -1.42433822 0.02952194
v -6.8E-07 -1.894521 0.43646431
v 1.12687266 -1.12904692 0.6439724
v 1.89087284 -4.3E-07 0.43646431
v 1.42159605 1.42433786 0.02952194
v 2.01044059 -4.6E-07 0.02952194
v 1.33704889 -1.33962882 0.43646431
v -0.23108239 -0.0091636 8.01931095
v -0.23108239 0.22194044 7.78820658
v -0.32680881 -0.0091636 7.78820658
v -0.23108236 -0.2402676 7.78820658
v 2.162E-05 -0.00916362 8.11503696
v -0.16339359 0.15425165 8.01931095
v 2.163E-05 0.31766689 7.78820658
v 2.164E-05 -0.2402676 8.01931095
v 2.163E-05 -0.33599404 7.78820658
v -0.16339354 -0.1725788 8.01931095
v 2.164E-05 0.22194044 8.01931095
v 0.23112568 0.22194044 7.78820658
v 0.16343684 -0.1725788 8.01931095
v 0.23112564 -0.2402676 7.78820658
v 0.16343686 0.15425162 8.01931095
v 0.32685208 -0.0091636 7.78820658
v 0.23112567 -0.00916359 8.01931095
v 0.55824006 1.36032271 7.54300833
v -0.57687426 1.34303665 7.54300833
v 1.3937304 0.62854844 7.54300833
v -1.4E-07 0.61219144 7.23898602
vn -0.85413 0 0.52006
vn -0.51791 0.51703 0.6815
vn -0.60437 0.60363 0.51997
vn 0 0.7316 0.68173
vn 0 0.85424 0.51988
vn -0.56324 0.56225 0.60551
vn -0.51791 -0.51703 0.6815
vn -0.73203 0 0.68128
vn -0.91962 0.00166 -0.3928
vn -0.65093 0.65154 -0.38959
vn 0.60437 0.60363 0.51997
vn 0.51791 0.51703 0.6815
vn 0 0.79562 0.60579
vn 0 0.92147 -0.38845
vn -0.99521 0 0.09776
vn -0.70401 0.70344 0.09768
vn -0.56324 -0.56224 0.60551
vn -0.79605 0 0.60522
vn -0.60437 -0.60363 0.51997
vn -0 -0.7316 0.68173
vn -0.69364 0.71079 -0.11683
vn 0.85413 -0 0.52006
vn 0.73203 0 0.68128
vn 0.56324 0.56224 0.60551
vn 0.65093 0.65154 -0.38959
vn 0 0.99523 0.0976
vn -0.00771 0.99557 -0.0937
vn -0.60487 0.60381 -0.51918
vn -0 -0.79562 0.60579
vn 0.60437 -0.60363 0.51997
vn -0 -0.85424 0.51988
vn -0.65045 -0.64774 -0.39667
vn -0.99736 -0.00997 -0.0719
vn -0.69919 0.34324 0.62715
vn -0.25391 0.00246 0.96723
vn -0.16781 0.16744 0.9715
vn 0.51791 -0.51703 0.6815
vn 0.79605 0 0.60523
vn 0.91962 0.00166 -0.3928
vn 0.70401 0.70344 0.09768
vn 0.68358 0.72047 -0.1168
vn 0 0.85446 -0.51952
vn -0.99321 0 0.11637
vn -0.70281 0.70177 0.11648
vn -0.60487 -0.60381 -0.51918
vn -0.85488 0 -0.51883
vn -0.70401 -0.70344 0.09768
vn 0.65045 -0.64774 -0.39667
vn -0 -0.91718 -0.39848
vn -0.70478 -0.69637 -0.13551
vn -0.67621 -0.34093 0.65308
vn 0.56324 -0.56224 0.60551
vn 0.99521 0 0.09776
vn 0.99368 0.01857 -0.1107
vn 0.60487 0.60381 -0.51918
vn -0.16175 -0.16305 0.97327
vn 0 0.99318 0.1166
vn -0.94135 0 0.33744
vn -0.66605 0.66506 0.33774
vn -0 -0.85446 -0.51952
vn 0.70401 -0.70344 0.09768
vn -0 -0.99523 0.0976
vn 0.71 -0.69922 -0.08354
vn 0.00147 -0.99707 -0.07642
vn -0.35315 -0.68124 0.64125
vn -0.00751 -0.2485 0.9686
vn 0.85488 0 -0.51883
vn 0.70281 0.70177 0.11648
vn 0 0.94113 0.33804
vn 0.73265 -0.22886 0.64098
vn -0.64738 0 0.76216
vn -0.45786 0.45713 0.76249
vn -0.70281 -0.70177 0.11648
vn 0.29525 -0.66461 0.68638
vn 0.18045 -0.16662 0.96937
vn -0.69031 0.68739 0.22574
vn -0.97473 -0.00208 0.22338
vn 0.60487 -0.60381 -0.51918
vn 0.99321 0 0.11637
vn 0.66606 0.66506 0.33774
vn 0 0.64661 0.76282
vn 1E-05 0.97441 0.22476
vn -0.91152 0 0.41126
vn -0.64491 0.64419 0.41124
vn -0.66606 -0.66506 0.33774
vn -0 -0.99318 0.1166
vn 0.70281 -0.70177 0.11648
vn -0.6907 -0.68674 0.22656
vn 0.94135 0 0.33744
vn 0.45786 0.45713 0.76249
vn 0.17131 0.16941 0.97054
vn 0.69032 0.68739 0.22572
vn 0 0.91154 0.41121
vn -0.68017 0.67898 0.27633
vn -0.96113 0 0.27609
vn -0.45786 -0.45713 0.76249
vn -0.64491 -0.64419 0.41124
vn -0 -0.94113 0.33804
vn 0.66606 -0.66506 0.33774
vn -0.00095 -0.97438 0.2249
vn 0.64739 0 0.76216
vn 0.24352 0.01039 0.96984
vn 0.97467 -0.00353 0.22363
vn 0.64491 0.64419 0.41124
vn 0 0.961 0.27656
vn -0.99862 0 0.05247
vn -0.70647 0.70579 0.05246
vn -0.68017 -0.67898 0.27633
vn -0 -0.64661 0.76282
vn -0 -0.91154 0.41122
vn 0.45786 -0.45713 0.76249
vn 0.6858 -0.69339 0.22112
vn 0.91152 0 0.41126
vn 0.68017 0.67898 0.27633
vn 0 0.99862 0.05244
vn -0.68733 0.68592 0.23894
vn -0.97106 0 0.23882
vn -0.70648 -0.70579 0.05246
vn -0 -0.961 0.27656
vn 0.64491 -0.64419 0.41124
vn 0.96113 0 0.27609
vn 0.70647 0.70579 0.05246
vn 0 0.97101 0.23905
vn -0.83627 0 0.54832
vn -0.59164 0.59082 0.54854
vn -0.68733 -0.68592 0.23894
vn -0 -0.99862 0.05244
vn 0.68017 -0.67898 0.27633
vn 0.99862 0 0.05247
vn 0.68733 0.68592 0.23894
vn 0 0.83598 0.54875
vn -0.85381 0 -0.52059
vn -0.60419 0.60347 -0.52037
vn -0.59164 -0.59082 0.54854
vn -0 -0.97101 0.23905
vn 0.70647 -0.70579 0.05246
vn 0.97106 0 0.23882
vn 0.59164 0.59082 0.54854
vn 0 0.8541 -0.52012
vn 0.60419 -0.60347 -0.52037
vn -0 -0.8541 -0.52012
vn -0.6042 -0.60348 -0.52035
vn -0 -0.83598 0.54875
vn 0.68733 -0.68592 0.23894
vn 0.83627 0 0.54832
vn 0.6042 0.60348 -0.52035
vn 0.85381 -0 -0.52059
vn 0.59164 -0.59082 0.54854
vn -0.74863 -0 0.66299
vn -0.7071 0.70711 -0
vn -1 0.00011 -0.00044
vn -0.70711 -0.70711 -1E-05
vn -0 -0 1
vn -0.52935 0.52936 0.663
vn -0 1 0
vn -1E-05 -0.74862 0.663
vn 1E-05 -1 -0
vn -0.52935 -0.52935 0.663
vn 1E-05 0.74862 0.663
vn 0.7071 0.70711 -0
vn 0.52935 -0.52936 0.663
vn 0.70732 -0.70689 -0.00119
vn 0.52936 0.52935 0.663
vn 1 0.00012 -0.00043
vn 0.74862 -1E-05 0.663
vn 0.28802 0.71501 0.63703
vn -0.30783 0.70122 0.64307
vn 0.71698 0.35477 0.60006
vn -0.00048 0.24357 0.96988
usemtl mat0
f 31//31 32//32 33//33
f 33//33 34//34 35//35
f 36//36 31//31 33//33
f 31//31 37//37 38//38
f 32//32 39//39 40//40
f 41//41 34//34 42//42
f 43//43 33//33 35//35
f 34//34 40//40 44//44
f 45//45 36//36 46//46
f 47//47 31//31 48//48
f 49//49 50//50 37//37
f 37//37 39//39 38//38
f 39//39 51//51 40//40
f 52//52 42//42 53//53
f 43//43 41//41 54//54
f 34//34 55//55 42//42
f 46//46 43//43 56//56
f 40//40 57//57 44//44
f 58//58 45//45 46//46
f 45//45 47//47 48//48
f 59//59 49//49 47//47
f 60//60 50//50 61//61
f 50//50 62//62 37//37
f 62//62 63//63 39//39
f 64//64 65//65 66//66
f 52//52 67//67 60//60
f 54//54 52//52 68//68
f 42//42 69//69 53//53
f 70//70 43//43 54//54
f 55//55 57//57 71//71
f 72//72 46//46 56//56
f 64//64 63//63 65//65
f 73//73 58//58 74//74
f 75//75 45//45 76//76
f 77//77 59//59 47//47
f 59//59 60//60 61//61
f 50//50 78//78 79//79
f 79//79 80//80 62//62
f 65//65 63//63 81//81
f 82//82 52//52 60//60
f 67//67 69//69 78//78
f 83//83 54//54 68//68
f 69//69 71//71 84//84
f 72//72 70//70 85//85
f 81//81 86//86 65//65
f 74//74 72//72 87//87
f 88//88 74//74 89//89
f 73//73 75//75 76//76
f 90//90 77//77 75//75
f 91//91 59//59 92//92
f 79//79 93//93 94//94
f 95//95 96//96 86//86
f 83//83 82//82 91//91
f 78//78 84//84 93//93
f 85//85 83//83 97//97
f 81//81 80//80 86//86
f 98//98 72//72 85//85
f 89//89 87//87 99//99
f 100//100 93//93 84//84
f 101//101 89//89 102//102
f 88//88 103//103 73//73
f 103//103 90//90 75//75
f 90//90 91//91 92//92
f 96//96 104//104 105//105
f 106//106 65//65 107//107
f 108//108 83//83 91//91
f 109//109 85//85 97//97
f 110//110 87//87 98//98
f 102//102 99//99 111//111
f 112//112 66//66 106//106
f 113//113 102//102 114//114
f 101//101 115//115 88//88
f 115//115 116//116 103//103
f 117//117 90//90 116//116
f 65//65 118//118 107//107
f 109//109 108//108 117//117
f 119//119 98//98 109//109
f 120//120 99//99 110//110
f 121//121 112//112 122//122
f 114//114 111//111 123//123
f 113//113 124//124 125//125
f 126//126 113//113 127//127
f 126//126 128//128 115//115
f 129//129 116//116 128//128
f 86//86 130//130 118//118
f 119//119 117//117 129//129
f 131//131 110//110 119//119
f 132//132 122//122 133//133
f 111//111 134//134 123//123
f 114//114 135//135 124//124
f 136//136 124//124 137//137
f 138//138 113//113 125//125
f 139//139 127//127 140//140
f 141//141 128//128 139//139
f 96//96 142//142 130//130
f 131//131 129//129 141//141
f 105//105 133//133 142//142
f 120//120 143//143 134//134
f 135//135 134//134 144//144
f 137//137 135//135 145//145
f 136//136 146//146 147//147
f 138//138 136//136 148//148
f 149//149 127//127 138//138
f 150//150 139//139 140//140
f 143//143 141//141 150//150
f 144//144 143//143 151//151
f 135//135 152//152 145//145
f 137//137 153//153 146//146
f 154//154 146//146 155//155
f 156//156 136//136 147//147
f 149//149 148//148 157//157
f 150//150 149//149 158//158
f 143//143 158//158 151//151
f 144//144 159//159 152//152
f 153//153 152//152 160//160
f 155//155 153//153 161//161
f 162//162 155//155 163//163
f 156//156 154//154 164//164
f 165//165 148//148 156//156
f 166//166 149//149 157//157
f 159//159 158//158 166//166
f 160//160 159//159 167//167
f 153//153 168//168 161//161
f 163//163 161//161 169//169
f 170//170 171//171 172//172
f 164//164 162//162 172//172
f 165//165 164//164 173//173
f 166//166 165//165 174//174
f 159//159 174//174 167//167
f 160//160 175//175 168//168
f 161//161 176//176 169//169
f 168//168 177//177 176//176
f 177//177 178//178 170//170
f 170//170 173//173 171//171
f 173//173 172//172 171//171
f 178//178 165//165 173//173
f 175//175 174//174 178//178
f 179//179 180//180 181//181
f 181//181 106//106 107//107
f 182//182 179//179 181//181
f 179//179 183//183 184//184
f 184//184 185//185 180//180
f 182//182 107//107 118//118
f 180//180 112//112 106//106
f 186//186 182//182 187//187
f 188//188 183//183 179//179
f 184//184 183//183 189//189
f 189//189 190//190 185//185
f 130//130 182//182 118//118
f 112//112 190//190 122//122
f 191//191 187//187 192//192
f 186//186 183//183 188//188
f 189//189 183//183 193//193
f 193//193 194//194 190//190
f 142//142 187//187 130//130
f 122//122 194//194 133//133
f 195//195 192//192 194//194
f 191//191 183//183 186//186
f 193//193 183//183 195//195
f 133//133 192//192 142//142
f 195//195 183//183 191//191
f 84//84 132//132 100//100
f 132//132 105//105 100//100
f 100//100 105//105 93//93
f 93//93 105//105 104//104
f 96//96 94//94 104//104
f 94//94 93//93 104//104
f 96//96 95//95 94//94
f 80//80 94//94 95//95
f 80//80 95//95 86//86
f 81//81 63//63 80//80
f 196//196 71//71 57//57
f 197//197 57//57 51//51
f 51//51 63//63 64//64
f 198//198 84//84 71//71
f 66//66 51//51 64//64
f 197//197 51//51 66//66
f 197//197 66//66 199//199
f 199//199 57//57 197//197
f 196//196 57//57 199//199
f 196//196 199//199 121//121
f 121//121 71//71 196//196
f 71//71 121//121 198//198
f 121//121 132//132 198//198
f 84//84 198//198 132//132
f 31//31 38//38 32//32
f 33//33 32//32 34//34
f 36//36 48//48 31//31
f 31//31 49//49 37//37
f 32//32 38//38 39//39
f 41//41 35//35 34//34
f 43//43 36//36 33//33
f 34//34 32//32 40//40
f 45//45 48//48 36//36
f 47//47 49//49 31//31
f 49//49 61//61 50//50
f 37//37 62//62 39//39
f 39//39 63//63 51//51
f 52//52 41//41 42//42
f 43//43 35//35 41//41
f 34//34 44//44 55//55
f 46//46 36//36 43//43
f 40//40 51//51 57//57
f 58//58 76//76 45//45
f 45//45 77//77 47//47
f 59//59 61//61 49//49
f 60//60 67//67 50//50
f 50//50 79//79 62//62
f 62//62 80//80 63//63
f 52//52 53//53 67//67
f 54//54 41//41 52//52
f 42//42 55//55 69//69
f 70//70 56//56 43//43
f 55//55 44//44 57//57
f 72//72 58//58 46//46
f 73//73 76//76 58//58
f 75//75 77//77 45//45
f 77//77 92//92 59//59
f 59//59 82//82 60//60
f 50//50 67//67 78//78
f 79//79 94//94 80//80
f 82//82 68//68 52//52
f 67//67 53//53 69//69
f 83//83 70//70 54//54
f 69//69 55//55 71//71
f 72//72 56//56 70//70
f 74//74 58//58 72//72
f 88//88 73//73 74//74
f 73//73 103//103 75//75
f 90//90 92//92 77//77
f 91//91 82//82 59//59
f 79//79 78//78 93//93
f 83//83 68//68 82//82
f 78//78 69//69 84//84
f 85//85 70//70 83//83
f 98//98 87//87 72//72
f 89//89 74//74 87//87
f 101//101 88//88 89//89
f 88//88 115//115 103//103
f 103//103 116//116 90//90
f 90//90 108//108 91//91
f 106//106 66//66 65//65
f 108//108 97//97 83//83
f 109//109 98//98 85//85
f 110//110 99//99 87//87
f 102//102 89//89 99//99
f 112//112 199//199 66//66
f 113//113 101//101 102//102
f 101//101 126//126 115//115
f 115//115 128//128 116//116
f 117//117 108//108 90//90
f 65//65 86//86 118//118
f 109//109 97//97 108//108
f 119//119 110//110 98//98
f 120//120 111//111 99//99
f 121//121 199//199 112//112
f 114//114 102//102 111//111
f 113//113 114//114 124//124
f 126//126 101//101 113//113
f 126//126 139//139 128//128
f 129//129 117//117 116//116
f 86//86 96//96 130//130
f 119//119 109//109 117//117
f 131//131 120//120 110//110
f 132//132 121//121 122//122
f 111//111 120//120 134//134
f 114//114 123//123 135//135
f 136//136 125//125 124//124
f 138//138 127//127 113//113
f 139//139 126//126 127//127
f 141//141 129//129 128//128
f 96//96 105//105 142//142
f 131//131 119//119 129//129
f 105//105 132//132 133//133
f 120//120 131//131 143//143
f 135//135 123//123 134//134
f 137//137 124//124 135//135
f 136//136 137//137 146//146
f 138//138 125//125 136//136
f 149//149 140//140 127//127
f 150//150 141//141 139//139
f 143//143 131//131 141//141
f 144//144 134//134 143//143
f 135//135 144//144 152//152
f 137//137 145//145 153//153
f 154//154 147//147 146//146
f 156//156 148//148 136//136
f 149//149 138//138 148//148
f 150//150 140//140 149//149
f 143//143 150//150 158//158
f 144//144 151//151 159//159
f 153//153 145//145 152//152
f 155//155 146//146 153//153
f 162//162 154//154 155//155
f 156//156 147//147 154//154
f 165//165 157//157 148//148
f 166//166 158//158 149//149
f 159//159 151//151 158//158
f 160//160 152//152 159//159
f 153//153 160//160 168//168
f 163//163 155//155 161//161
f 172//172 162//162 177//177
f 162//162 163//163 176//176
f 163//163 169//169 176//176
f 176//176 177//177 162//162
f 177//177 170//170 172//172
f 164//164 154//154 162//162
f 165//165 156//156 164//164
f 166//166 157//157 165//165
f 159//159 166//166 174//174
f 160//160 167//167 175//175
f 161//161 168//168 176//176
f 168//168 175//175 177//177
f 177//177 175//175 178//178
f 170//170 178//178 173//173
f 173//173 164//164 172//172
f 178//178 174//174 165//165
f 175//175 167//167 174//174
f 179//179 184//184 180//180
f 181//181 180//180 106//106
f 182//182 188//188 179//179
f 184//184 189//189 185//185
f 182//182 181//181 107//107
f 180//180 185//185 112//112
f 186//186 188//188 182//182
f 189//189 193//193 190//190
f 130//130 187//187 182//182
f 112//112 185//185 190//190
f 191//191 186//186 187//187
f 193//193 195//195 194//194
f 142//142 192//192 187//187
f 122//122 190//190 194//194
f 195//195 191//191 192//192
f 133//133 194//194 192//192
# Vertices: 169, normals: 169, texture coordinates: 0, faces: 334

