# File generated by ImageToStl.com - Free Image and 3D model conversion tools

mtllib sketchfab_2016_12_14_14_11_05.mtl

o obj1
v -0.01643074 0 8.07061195
v 0.13563928 -1E-08 8.13360119
v 0.02810956 0.10752975 8.07061195
v 0.13563929 0 7.70348263
v -0.01643074 0 7.76647186
v 0.02810956 0.10752975 7.76647186
v -0.01643074 0.15207002 7.91854191
v -0.07942019 0 7.91854191
v 0.13563929 0.15207002 7.76647186
v 0.13563929 0.2150595 7.91854191
v 0.13563929 0.15207002 8.07061195
v 0.24316904 0.10752974 7.76647186
v 0.28770933 0.15207002 7.91854191
v 0.24316904 0.10752974 8.07061195
v 0.2877093 1E-08 8.07061195
v 0.2877093 1E-08 7.76647186
v 0.35069877 0 7.91854191
v 0.24316901 -0.10752971 7.76647186
v 0.24316901 -0.10752971 8.07061195
v 0.2877093 -0.15207 7.91854191
v 0.13563929 -0.15206999 7.76647186
v 0.13563929 -0.15206999 8.07061195
v 0.13563929 -0.21505943 7.91854191
v 0.02810958 -0.10752971 7.76647186
v 0.02810958 -0.10752971 8.07061195
v -0.01643068 -0.15206999 7.91854191
v -0.59535956 0 7.03634548
v -0.43664455 0 7.19146156
v -0.4414075 0.37167302 7.03634548
v -0.44776887 0.55804229 6.82917452
v -0.4414075 -0.37167269 7.03634548
v -0.78070194 -1E-08 5.45675373
v -0.59535956 0.70710683 6.31015635
v -0.51930958 0.6310569 5.45675373
v -0.44766098 -0.55940831 6.82803869
v -0.88825279 0 6.31015635
v -0.40738565 0.74722099 6.40374517
v -0.38276726 0.79516548 6.31015635
v -0.49890459 4.3E-07 5.19456959
v -0.59535939 -0.70710665 6.31015635
v -0.5193094 -0.63105673 5.45675373
v -0.20055711 0.81761026 5.88937664
v -0.06987431 0.87174082 5.88937664
v 0.11174729 0.8924492 5.45675373
v -0.40738565 -0.7472207 6.40374565
v -0.32004827 0.43262959 5.19456959
v -0.55377746 4.8E-07 5.0183835
v -0.35884917 0.47150546 5.0183835
v -0.20055711 -0.81761003 5.88937712
v -0.31994182 -0.7910887 6.07131958
v 0.11174725 0.99971807 6.30791855
v 0.74280411 0.63105685 5.45675373
v 0.54354328 0.4326289 5.19456959
v 0.11174726 0.61182982 5.19456959
v 0.11174725 0.66680843 5.0183835
v -0.83019477 6.6E-07 4.81235409
v -0.55430537 0.66733915 4.81235409
v -0.32004908 -0.43262896 5.19456959
v 0.11174729 -0.89244902 5.45675373
v 0.11174725 -0.99971777 6.30791855
v 0.74280405 -0.63105673 5.45675373
v 0.81885397 -0.70710671 6.31015635
v 0.13695426 0.95181197 6.40374517
v 0.17733748 0.76349652 6.82917452
v 0.81885409 0.70710683 6.31015635
v 1.00419641 3E-08 5.45675373
v 0.72239918 -1.2E-07 5.19456959
v 0.58234429 0.47150481 5.0183835
v 0.11174724 0.94375885 4.81235409
v -0.5428772 0.6558888 4.60514545
v -0.35885018 -0.47150496 5.0183835
v 0.11174706 -0.61183017 5.19456959
v 0.54354328 -0.43262923 5.19456959
v 1.11174715 0 6.31015635
v 0.61174721 -0.49999991 7.03634548
v 0.17097618 -0.68257326 7.03634548
v 0.17733748 -0.76349622 6.829175
v 0.61174726 0.5 7.03634548
v 0.17097618 0.68257344 7.03634548
v 0.16367741 0.44237968 7.2740469
v 0.77727199 -1.2E-07 5.0183835
v 0.77780086 0.66733825 4.81235409
v 0.11174724 0.92756569 4.60514545
v -1.1555742 8.7E-07 4.37262964
v -0.78438306 0.89786094 4.37262964
v -0.54287857 -0.65588814 4.60514545
v -0.81403279 6.4E-07 4.60514545
v -0.55430681 -0.66733849 4.81235409
v 0.11174703 -0.66680902 5.0183835
v 0.58234429 -0.47150508 5.0183835
v 0.81885403 3E-08 7.03634548
v 0.11174724 -0.14886487 7.58192825
v 0.16367741 -0.4423795 7.27404737
v 0.11174722 0 7.72741747
v 0.09833601 0.06195309 7.6614399
v 0.08607438 0.02567284 7.69193411
v 1.05368924 -1.8E-07 4.81235409
v 0.76637262 0.6558879 4.60514545
v 0.11174723 1.26976573 4.37262964
v -0.32126278 0.43384635 4.07891273
v 0.11174694 -0.92756629 4.60514545
v 0.77780086 -0.66733873 4.81235409
v 0.11174693 -0.9437595 4.81235409
v 0.09833601 -0.06195307 7.66144037
v 0.08307434 0 7.6993947
v 1.03752732 -1.8E-07 4.60514545
v 1.00787878 0.89785975 4.37262964
v 0.11174725 0.61355066 4.07891273
v -0.51646 4.4E-07 3.32650852
v -0.33246174 0.44506699 3.32650852
v -0.32126364 -0.43384582 4.07891273
v -0.50062221 4.3E-07 4.07891273
v -0.78438491 -0.89786005 4.37262964
v 0.08607439 -0.02567284 7.69193411
v 0.76637262 -0.65588844 4.60514545
v 1.37906849 -2.6E-07 4.37262964
v 0.54475784 0.43384576 4.07891273
v 0.11174725 0.62941891 3.32650852
v -0.59156072 4.9E-07 2.6550684
v -0.38556597 0.4982737 2.6550684
v 0.11174705 -0.61355096 4.07891273
v 1.00787878 -0.89786047 4.37262964
v 0.11174682 -1.26976657 4.37262964
v 0.7241168 -1.1E-07 4.07891273
v 0.55595684 0.44506639 3.32650852
v 0.11174725 0.70466459 2.6550684
v -0.917772 7.1E-07 1.98362827
v -0.61623174 0.72938496 1.98362827
v -0.33246264 -0.44506642 3.32650852
v 0.54475784 -0.43384603 4.07891273
v 0.73995459 -1.2E-07 3.32650852
v 0.60906112 0.49827302 2.6550684
v 0.11174724 1.03150499 1.98362827
v -1.1699208 8.7E-07 1.87089539
v -0.79452777 0.90802521 1.87089539
v -0.38556698 -0.4982731 2.6550684
v 0.11174705 -0.62941927 3.32650852
v 0.55595684 -0.44506666 3.32650852
v 0.81505537 -1.3E-07 2.6550684
v 0.83972734 0.72938401 1.98362827
v 0.11174721 1.28414011 1.87089539
v -0.78270853 0.89618319 1.78184319
v -1.15320611 8.6E-07 1.78184319
v -0.61623317 -0.72938418 1.98362827
v -0.79452932 -0.90802425 1.87089539
v 0.11174702 -0.70466495 2.6550684
v 0.60906112 -0.49827337 2.6550684
v 1.14126635 -2.1E-07 1.98362827
v 1.01802337 0.90802407 1.87089539
v 0.11174721 1.26739287 1.78184319
v -1.78492641 1.26E-06 1.26563025
v -1.22940207 1.34373915 1.26563025
v -0.78271019 -0.89618224 1.78184319
v 0.1117469 -1.03150547 1.98362827
v 0.11174679 -1.28414071 1.87089539
v 0.83972734 -0.7293846 1.98362827
v 1.39341521 -2.7E-07 1.87089539
v 1.00620425 0.89618194 1.78184319
v 0.11174714 1.90033185 1.26563025
v -1.01512408 1.12904739 0.78912449
v -1.48189163 1.06E-06 0.78912449
v -1.22940469 -1.34373772 1.26563025
v 0.1117468 -1.26739359 1.78184319
v 1.01802337 -0.90802461 1.87089539
v 1.37670028 -2.6E-07 1.78184319
v 1.45289779 1.34373724 1.26563025
v 0.11174718 1.59671223 0.78912449
v -1.77912569 1.26E-06 0.5816164
v -1.22530031 1.33962941 0.5816164
v -1.01512635 -1.12904632 0.78912449
v 0.11174652 -1.90033281 1.26563025
v 1.00620425 -0.89618266 1.78184319
v 2.00842047 -4.3E-07 1.26563025
v 1.2386198 1.12904596 0.78912449
v 0.11174714 1.89451969 0.5816164
v -1.89869344 1.33E-06 0.17467403
v -1.30984735 1.42433977 0.17467403
v -1.22530282 -1.33962798 0.5816164
v 0.11174665 -1.59671342 0.78912449
v 1.45289779 -1.34373856 1.26563025
v 1.70538568 -3.6E-07 0.78912449
v 1.44879603 1.33962762 0.5816164
v 0.11174712 2.01431799 0.17467403
v 1.5333432 -1.42433906 0.17467403
v 0.11174647 -2.01431942 0.17467403
v -1.3098501 -1.42433822 0.17467403
v 0.11174652 -1.894521 0.5816164
v 1.2386198 -1.12904692 0.78912449
v 2.00261998 -4.3E-07 0.5816164
v 1.5333432 1.42433786 0.17467403
v 2.12218785 -4.6E-07 0.17467403
v 1.44879603 -1.33962882 0.5816164
v 0.11174724 0.14886492 7.58192825
v 0.13695426 -0.95181161 6.40374517
v 0.04951037 -0.94412082 6.07131958
v 0.04951037 0.94412106 6.0713191
v -0.06987431 -0.87174058 5.88937712
v -0.38276726 -0.79516518 6.31015635
v -0.31994182 0.791089 6.07131958
vn -0.74862 1E-05 0.663
vn -0 -0 1
vn -0.52935 0.52936 0.663
vn 0 -0 -1
vn -0.74862 -1E-05 -0.663
vn -0.52936 0.52935 -0.663
vn -0.70711 0.70711 -0
vn -1 -0 -0
vn -1E-05 0.74862 -0.663
vn 0 1 0
vn 1E-05 0.74862 0.663
vn 0.52935 0.52936 -0.663
vn 0.70711 0.70711 0
vn 0.52936 0.52935 0.663
vn 0.74862 -1E-05 0.663
vn 0.74862 1E-05 -0.663
vn 1 -0 -0
vn 0.52936 -0.52935 -0.663
vn 0.52935 -0.52936 0.663
vn 0.70711 -0.70711 0
vn 1E-05 -0.74862 -0.663
vn 0 -0.74862 0.663
vn -0 -1 0
vn -0.52935 -0.52936 -0.663
vn -0.52936 -0.52936 0.66299
vn -0.70711 -0.70711 -0
vn -0.84527 -0 0.53434
vn 0.34174 -0 0.93979
vn 0.26506 0.6388 0.72227
vn 0.22262 0.70519 0.67316
vn 0.26489 -0.63837 0.72272
vn -0.90514 -0 -0.42512
vn -0.7018 0.7019 0.12167
vn -0.64025 0.64003 -0.42479
vn 0.22275 -0.70535 0.67296
vn -0.9926 -0 0.12146
vn 0.49807 0.73571 0.45897
vn 0.4625 0.84205 0.27757
vn -0.9552 0 -0.29595
vn -0.70187 -0.70187 0.12145
vn -0.64025 -0.64003 -0.42479
vn -0.08072 0.85404 0.5139
vn -0.60463 0.72148 0.33747
vn 0 0.90545 -0.42444
vn 0.49849 -0.73589 0.45822
vn -0.67587 0.67525 -0.29537
vn -0.78737 0 0.61648
vn -0.55701 0.55608 0.61687
vn -0.08071 -0.85404 0.51392
vn 0.43719 -0.86388 0.25016
vn -0.46906 0.84427 0.25923
vn 0.64024 0.64004 -0.42478
vn 0.67587 0.67524 -0.29537
vn 0 0.95556 -0.29479
vn 0 0.78677 0.61725
vn -0.92711 0 0.37478
vn -0.65593 0.65517 0.37485
vn -0.67587 -0.67524 -0.29537
vn 0 -0.90545 -0.42444
vn -0.46906 -0.84427 0.25923
vn 0.64025 -0.64004 -0.42477
vn 0.70185 -0.70189 0.12146
vn -0.49758 0.73891 0.45434
vn -0.542 0.76443 0.34912
vn 0.70185 0.70189 0.12146
vn 0.90513 1E-05 -0.42512
vn 0.9552 -0 -0.29595
vn 0.55701 0.55608 0.61687
vn 0 0.92706 0.37492
vn -0.61723 0.61613 0.4893
vn -0.55701 -0.55607 0.61687
vn -0 -0.95556 -0.29479
vn 0.67587 -0.67524 -0.29537
vn 0.9926 -0 0.12146
vn 0.5977 -0.5977 0.53434
vn -0.53988 -0.72129 0.4339
vn -0.54202 -0.76441 0.34911
vn 0.5977 0.59769 0.53434
vn -0.53988 0.72129 0.4339
vn -0.60568 0.58336 0.54115
vn 0.78737 0 0.61648
vn 0.65593 0.65517 0.37485
vn 0 0.87193 0.48963
vn -0.99728 0 -0.07373
vn -0.70547 0.7049 -0.07366
vn -0.61723 -0.61613 0.4893
vn -0.87229 0 0.48898
vn -0.65593 -0.65517 0.37485
vn -0 -0.78677 0.61725
vn 0.55701 -0.55608 0.61687
vn 0.84527 -1E-05 0.53433
vn -0.64044 -0.60552 0.47243
vn -0.60566 -0.58337 0.54116
vn 1E-05 0 1
vn -0.82434 0.45975 0.33029
vn -0.8659 0.41642 0.27714
vn 0.92711 0 0.37478
vn 0.61723 0.61613 0.4893
vn 0 0.99729 -0.0736
vn -0.56289 0.56191 -0.60615
vn -0 -0.87193 0.48963
vn 0.65593 -0.65517 0.37485
vn -0 -0.92706 0.37492
vn -0.82435 -0.45975 0.33028
vn -0.95866 -0 0.28455
vn 0.87229 0 0.48898
vn 0.70547 0.7049 -0.07366
vn 0 0.79512 -0.60646
vn -0.99776 0 0.0669
vn -0.70602 0.70502 0.06697
vn -0.56289 -0.5619 -0.60615
vn -0.79559 0 -0.60584
vn -0.70547 -0.7049 -0.07366
vn -0.86591 -0.41642 0.27713
vn 0.61723 -0.61613 0.4893
vn 0.99728 0 -0.07373
vn 0.56289 0.56191 -0.60615
vn 0 0.99775 0.06704
vn -0.95709 0 0.28981
vn -0.67722 0.67618 0.29008
vn -0 -0.79511 -0.60646
vn 0.70547 -0.7049 -0.07366
vn -0 -0.99729 -0.0736
vn 0.79559 0 -0.60584
vn 0.70602 0.70502 0.06697
vn 0 0.95692 0.29036
vn -0.64678 0 0.76268
vn -0.45743 0.4567 0.76301
vn -0.70602 -0.70502 0.06697
vn 0.56289 -0.5619 -0.60615
vn 0.99776 0 0.0669
vn 0.67722 0.67618 0.29008
vn 0 0.646 0.76333
vn -0.91152 0 0.41126
vn -0.64491 0.64419 0.41124
vn -0.67722 -0.67618 0.29008
vn -0 -0.99775 0.06704
vn 0.70602 -0.70502 0.06697
vn 0.95709 0 0.28981
vn 0.45743 0.4567 0.76301
vn 0 0.91154 0.41121
vn -0.65135 0.65016 0.39121
vn -0.92042 0 0.39093
vn -0.45743 -0.4567 0.76301
vn -0.64491 -0.64419 0.41124
vn -0 -0.95692 0.29036
vn 0.67722 -0.67618 0.29008
vn 0.64678 0 0.76268
vn 0.64491 0.64419 0.41124
vn 0 0.92019 0.39148
vn -0.99038 0 0.13837
vn -0.70064 0.69998 0.13833
vn -0.65135 -0.65016 0.39121
vn -0 -0.646 0.76333
vn -0 -0.91154 0.41122
vn 0.45743 -0.4567 0.76301
vn 0.91152 0 0.41126
vn 0.65135 0.65016 0.39121
vn 0 0.99039 0.13829
vn -0.68733 0.68592 0.23894
vn -0.97106 0 0.23882
vn -0.70064 -0.69998 0.13833
vn -0 -0.92019 0.39148
vn 0.64491 -0.64419 0.41124
vn 0.92042 0 0.39093
vn 0.70064 0.69998 0.13833
vn 0 0.97101 0.23905
vn -0.83627 0 0.54832
vn -0.59164 0.59082 0.54854
vn -0.68733 -0.68592 0.23894
vn -0 -0.99039 0.13829
vn 0.65135 -0.65016 0.39121
vn 0.99038 0 0.13837
vn 0.68733 0.68592 0.23894
vn 0 0.83598 0.54875
vn -0.85381 0 -0.52059
vn -0.60419 0.60347 -0.52037
vn -0.59164 -0.59082 0.54854
vn -0 -0.97101 0.23905
vn 0.70064 -0.69998 0.13833
vn 0.97106 0 0.23882
vn 0.59164 0.59082 0.54854
vn 0 0.8541 -0.52012
vn 0.60419 -0.60347 -0.52037
vn -0 -0.8541 -0.52012
vn -0.6042 -0.60348 -0.52035
vn -0 -0.83598 0.54875
vn 0.68733 -0.68592 0.23894
vn 0.83627 0 0.54832
vn 0.6042 0.60348 -0.52035
vn 0.85381 -0 -0.52059
vn 0.59164 -0.59082 0.54854
vn -0.64043 0.60552 0.47243
vn -0.4976 -0.7389 0.45434
vn -0.78189 -0.60718 0.14136
vn -0.78189 0.60718 0.14136
vn -0.60464 -0.72147 0.33747
vn 0.4625 -0.84205 0.27756
vn 0.43722 0.86387 0.25016
usemtl mat0
f 1//1 2//2 3//3
f 4//4 5//5 6//6
f 1//1 7//7 8//8
f 8//8 6//6 5//5
f 4//4 6//6 9//9
f 3//3 10//10 7//7
f 7//7 9//9 6//6
f 3//3 2//2 11//11
f 4//4 9//9 12//12
f 11//11 13//13 10//10
f 10//10 12//12 9//9
f 11//11 2//2 14//14
f 14//14 2//2 15//15
f 4//4 12//12 16//16
f 14//14 17//17 13//13
f 13//13 16//16 12//12
f 17//17 18//18 16//16
f 15//15 2//2 19//19
f 4//4 16//16 18//18
f 15//15 20//20 17//17
f 20//20 21//21 18//18
f 19//19 2//2 22//22
f 4//4 18//18 21//21
f 19//19 23//23 20//20
f 23//23 24//24 21//21
f 22//22 2//2 25//25
f 4//4 21//21 24//24
f 23//23 25//25 26//26
f 26//26 5//5 24//24
f 25//25 2//2 1//1
f 4//4 24//24 5//5
f 25//25 8//8 26//26
f 27//27 28//28 29//29
f 27//27 29//29 30//30
f 28//28 27//27 31//31
f 32//32 33//33 34//34
f 35//35 27//27 36//36
f 33//33 37//37 38//38
f 34//34 39//39 32//32
f 40//40 32//32 41//41
f 42//42 43//43 44//44
f 40//40 45//45 35//35
f 44//44 46//46 34//34
f 47//47 46//46 48//48
f 39//39 41//41 32//32
f 49//49 50//50 41//41
f 51//51 52//52 44//44
f 53//53 44//44 52//52
f 48//48 54//54 55//55
f 56//56 48//48 57//57
f 47//47 58//58 39//39
f 58//58 59//59 41//41
f 60//60 61//61 62//62
f 63//63 64//64 65//65
f 65//65 66//66 52//52
f 67//67 52//52 66//66
f 68//68 54//54 53//53
f 57//57 55//55 69//69
f 70//70 56//56 57//57
f 56//56 71//71 47//47
f 71//71 72//72 58//58
f 59//59 73//73 61//61
f 74//74 61//61 66//66
f 75//75 76//76 77//77
f 78//78 79//79 80//80
f 78//78 74//74 65//65
f 61//61 67//67 66//66
f 81//81 53//53 67//67
f 82//82 55//55 68//68
f 83//83 57//57 69//69
f 84//84 70//70 85//85
f 86//86 56//56 87//87
f 88//88 89//89 71//71
f 90//90 72//72 89//89
f 91//91 62//62 74//74
f 75//75 92//92 93//93
f 94//94 95//95 96//96
f 78//78 94//94 91//91
f 81//81 73//73 90//90
f 97//97 68//68 81//81
f 83//83 82//82 98//98
f 85//85 83//83 99//99
f 100//100 84//84 85//85
f 84//84 86//86 87//87
f 101//101 88//88 86//86
f 102//102 89//89 103//103
f 91//91 94//94 75//75
f 94//94 104//104 92//92
f 105//105 94//94 96//96
f 97//97 90//90 102//102
f 98//98 97//97 106//106
f 107//107 83//83 98//98
f 108//108 85//85 99//99
f 109//109 100//100 110//110
f 111//111 84//84 112//112
f 113//113 101//101 86//86
f 101//101 102//102 103//103
f 114//114 94//94 105//105
f 115//115 97//97 102//102
f 116//116 98//98 106//106
f 108//108 107//107 117//117
f 110//110 108//108 118//118
f 119//119 110//110 120//120
f 109//109 111//111 112//112
f 121//121 113//113 111//111
f 122//122 101//101 123//123
f 116//116 115//115 122//122
f 117//117 116//116 124//124
f 125//125 108//108 117//117
f 120//120 118//118 126//126
f 127//127 120//120 128//128
f 119//119 129//129 109//109
f 129//129 121//121 111//111
f 121//121 122//122 123//123
f 130//130 116//116 122//122
f 131//131 117//117 124//124
f 132//132 118//118 125//125
f 128//128 126//126 133//133
f 134//134 128//128 135//135
f 127//127 136//136 119//119
f 136//136 137//137 129//129
f 138//138 121//121 137//137
f 131//131 130//130 138//138
f 139//139 125//125 131//131
f 140//140 126//126 132//132
f 135//135 133//133 141//141
f 134//134 142//142 143//143
f 144//144 134//134 145//145
f 144//144 146//146 136//136
f 147//147 137//137 146//146
f 139//139 138//138 147//147
f 148//148 132//132 139//139
f 133//133 149//149 141//141
f 135//135 150//150 142//142
f 151//151 142//142 152//152
f 153//153 134//134 143//143
f 154//154 145//145 155//155
f 156//156 146//146 154//154
f 148//148 147//147 156//156
f 140//140 157//157 149//149
f 150//150 149//149 158//158
f 152//152 150//150 159//159
f 151//151 160//160 161//161
f 153//153 151//151 162//162
f 163//163 145//145 153//153
f 164//164 154//154 155//155
f 157//157 156//156 164//164
f 158//158 157//157 165//165
f 150//150 166//166 159//159
f 152//152 167//167 160//160
f 168//168 160//160 169//169
f 170//170 151//151 161//161
f 163//163 162//162 171//171
f 164//164 163//163 172//172
f 157//157 172//172 165//165
f 158//158 173//173 166//166
f 167//167 166//166 174//174
f 169//169 167//167 175//175
f 176//176 169//169 177//177
f 170//170 168//168 178//178
f 179//179 162//162 170//170
f 180//180 163//163 171//171
f 173//173 172//172 180//180
f 174//174 173//173 181//181
f 167//167 182//182 175//175
f 177//177 175//175 183//183
f 184//184 185//185 186//186
f 178//178 176//176 186//186
f 179//179 178//178 187//187
f 180//180 179//179 188//188
f 173//173 188//188 181//181
f 174//174 189//189 182//182
f 175//175 190//190 183//183
f 182//182 191//191 190//190
f 191//191 192//192 184//184
f 184//184 187//187 185//185
f 187//187 186//186 185//185
f 192//192 179//179 187//187
f 189//189 188//188 192//192
f 114//114 96//96 95//95
f 92//92 104//104 193//193
f 77//77 76//76 93//93
f 64//64 194//194 77//77
f 195//195 60//60 194//194
f 43//43 195//195 196//196
f 42//42 197//197 43//43
f 42//42 50//50 49//49
f 45//45 198//198 50//50
f 30//30 45//45 37//37
f 29//29 28//28 31//31
f 1//1 3//3 7//7
f 8//8 7//7 6//6
f 3//3 11//11 10//10
f 7//7 10//10 9//9
f 11//11 14//14 13//13
f 10//10 13//13 12//12
f 14//14 15//15 17//17
f 13//13 17//17 16//16
f 17//17 20//20 18//18
f 15//15 19//19 20//20
f 20//20 23//23 21//21
f 19//19 22//22 23//23
f 23//23 26//26 24//24
f 23//23 22//22 25//25
f 26//26 8//8 5//5
f 25//25 1//1 8//8
f 33//33 36//36 30//30
f 36//36 27//27 30//30
f 32//32 36//36 33//33
f 36//36 40//40 35//35
f 35//35 31//31 27//27
f 33//33 30//30 37//37
f 34//34 46//46 39//39
f 40//40 36//36 32//32
f 44//44 34//34 42//42
f 34//34 33//33 199//199
f 42//42 34//34 199//199
f 33//33 38//38 199//199
f 196//196 51//51 44//44
f 43//43 196//196 44//44
f 40//40 198//198 45//45
f 44//44 54//54 46//46
f 47//47 39//39 46//46
f 39//39 58//58 41//41
f 59//59 60//60 195//195
f 59//59 195//195 197//197
f 40//40 41//41 50//50
f 41//41 59//59 49//49
f 50//50 198//198 40//40
f 59//59 197//197 49//49
f 51//51 65//65 52//52
f 53//53 54//54 44//44
f 48//48 46//46 54//54
f 56//56 47//47 48//48
f 47//47 71//71 58//58
f 58//58 72//72 59//59
f 60//60 59//59 61//61
f 64//64 79//79 78//78
f 78//78 65//65 64//64
f 65//65 51//51 63//63
f 65//65 74//74 66//66
f 67//67 53//53 52//52
f 68//68 55//55 54//54
f 57//57 48//48 55//55
f 70//70 87//87 56//56
f 56//56 88//88 71//71
f 71//71 89//89 72//72
f 59//59 72//72 73//73
f 74//74 62//62 61//61
f 60//60 62//62 194//194
f 62//62 75//75 77//77
f 194//194 62//62 77//77
f 80//80 193//193 78//78
f 193//193 94//94 78//78
f 78//78 91//91 74//74
f 61//61 73//73 67//67
f 81//81 68//68 53//53
f 82//82 69//69 55//55
f 83//83 70//70 57//57
f 84//84 87//87 70//70
f 86//86 88//88 56//56
f 88//88 103//103 89//89
f 90//90 73//73 72//72
f 91//91 75//75 62//62
f 75//75 94//94 92//92
f 93//93 76//76 75//75
f 94//94 193//193 95//95
f 81//81 67//67 73//73
f 97//97 82//82 68//68
f 83//83 69//69 82//82
f 85//85 70//70 83//83
f 100//100 112//112 84//84
f 84//84 113//113 86//86
f 101//101 103//103 88//88
f 102//102 90//90 89//89
f 94//94 114//114 104//104
f 97//97 81//81 90//90
f 98//98 82//82 97//97
f 107//107 99//99 83//83
f 108//108 100//100 85//85
f 109//109 112//112 100//100
f 111//111 113//113 84//84
f 113//113 123//123 101//101
f 101//101 115//115 102//102
f 115//115 106//106 97//97
f 116//116 107//107 98//98
f 108//108 99//99 107//107
f 110//110 100//100 108//108
f 119//119 109//109 110//110
f 109//109 129//129 111//111
f 121//121 123//123 113//113
f 122//122 115//115 101//101
f 116//116 106//106 115//115
f 117//117 107//107 116//116
f 125//125 118//118 108//108
f 120//120 110//110 118//118
f 127//127 119//119 120//120
f 119//119 136//136 129//129
f 129//129 137//137 121//121
f 121//121 130//130 122//122
f 130//130 124//124 116//116
f 131//131 125//125 117//117
f 132//132 126//126 118//118
f 128//128 120//120 126//126
f 134//134 127//127 128//128
f 127//127 144//144 136//136
f 136//136 146//146 137//137
f 138//138 130//130 121//121
f 131//131 124//124 130//130
f 139//139 132//132 125//125
f 140//140 133//133 126//126
f 135//135 128//128 133//133
f 134//134 135//135 142//142
f 144//144 127//127 134//134
f 144//144 154//154 146//146
f 147//147 138//138 137//137
f 139//139 131//131 138//138
f 148//148 140//140 132//132
f 133//133 140//140 149//149
f 135//135 141//141 150//150
f 151//151 143//143 142//142
f 153//153 145//145 134//134
f 154//154 144//144 145//145
f 156//156 147//147 146//146
f 148//148 139//139 147//147
f 140//140 148//148 157//157
f 150//150 141//141 149//149
f 152//152 142//142 150//150
f 151//151 152//152 160//160
f 153//153 143//143 151//151
f 163//163 155//155 145//145
f 164//164 156//156 154//154
f 157//157 148//148 156//156
f 158//158 149//149 157//157
f 150//150 158//158 166//166
f 152//152 159//159 167//167
f 168//168 161//161 160//160
f 170//170 162//162 151//151
f 163//163 153//153 162//162
f 164//164 155//155 163//163
f 157//157 164//164 172//172
f 158//158 165//165 173//173
f 167//167 159//159 166//166
f 169//169 160//160 167//167
f 176//176 168//168 169//169
f 170//170 161//161 168//168
f 179//179 171//171 162//162
f 180//180 172//172 163//163
f 173//173 165//165 172//172
f 174//174 166//166 173//173
f 167//167 174//174 182//182
f 177//177 169//169 175//175
f 186//186 176//176 191//191
f 176//176 177//177 190//190
f 177//177 183//183 190//190
f 190//190 191//191 176//176
f 191//191 184//184 186//186
f 178//178 168//168 176//176
f 179//179 170//170 178//178
f 180//180 171//171 179//179
f 173//173 180//180 188//188
f 174//174 181//181 189//189
f 175//175 182//182 190//190
f 182//182 189//189 191//191
f 191//191 189//189 192//192
f 184//184 192//192 187//187
f 187//187 178//178 186//186
f 192//192 188//188 179//179
f 189//189 181//181 188//188
f 95//95 104//104 114//114
f 114//114 105//105 96//96
f 104//104 95//95 193//193
f 193//193 80//80 93//93
f 93//93 92//92 193//193
f 93//93 80//80 64//64
f 80//80 79//79 64//64
f 64//64 77//77 93//93
f 64//64 63//63 194//194
f 194//194 63//63 195//195
f 63//63 51//51 196//196
f 195//195 63//63 196//196
f 43//43 197//197 195//195
f 42//42 49//49 197//197
f 42//42 199//199 50//50
f 50//50 199//199 37//37
f 199//199 38//38 37//37
f 37//37 45//45 50//50
f 30//30 35//35 45//45
f 35//35 30//30 31//31
f 30//30 29//29 31//31
# Vertices: 199, normals: 199, texture coordinates: 0, faces: 390

